<?xml version="1.0" encoding="UTF-8" standalone="no"?>
<svg
   xmlns:dc="http://purl.org/dc/elements/1.1/"
   xmlns:cc="http://creativecommons.org/ns#"
   xmlns:rdf="http://www.w3.org/1999/02/22-rdf-syntax-ns#"
   xmlns:svg="http://www.w3.org/2000/svg"
   xmlns="http://www.w3.org/2000/svg"
   xmlns:sodipodi="http://sodipodi.sourceforge.net/DTD/sodipodi-0.dtd"
   xmlns:inkscape="http://www.inkscape.org/namespaces/inkscape"
   width="23.448"
   height="25.342"
   viewBox="0 0 23.448 25.342"
   version="1.1"
   id="svg4"
   sodipodi:docname="logo.svg"
   inkscape:version="1.0.1 (3bc2e813f5, 2020-09-07)">
  <metadata
     id="metadata10">
    <rdf:RDF>
      <cc:Work
         rdf:about="">
        <dc:format>image/svg+xml</dc:format>
        <dc:type
           rdf:resource="http://purl.org/dc/dcmitype/StillImage" />
      </cc:Work>
    </rdf:RDF>
  </metadata>
  <defs
     id="defs8" />
  <sodipodi:namedview
     pagecolor="#ffffff"
     bordercolor="#666666"
     borderopacity="1"
     objecttolerance="10"
     gridtolerance="10"
     guidetolerance="10"
     inkscape:pageopacity="0"
     inkscape:pageshadow="2"
     inkscape:window-width="1366"
     inkscape:window-height="705"
     id="namedview6"
     showgrid="false"
     inkscape:zoom="15.513826"
     inkscape:cx="15.833487"
     inkscape:cy="13.445138"
     inkscape:window-x="-8"
     inkscape:window-y="-8"
     inkscape:window-maximized="1"
     inkscape:current-layer="svg4"
     inkscape:document-rotation="0" />
  <path
     d="m 592.823,53.4 h -3.353 a 8.3,8.3 0 0 0 -0.914,-0.109 l -2.634,-3.157 -0.239,-0.348 -4.354,-6.923 a 6.476,6.476 0 0 0 -0.544,-0.61 c -0.218,-0.2 -0.871,-0.261 -1.067,-0.348 a 0.85,0.85 0 0 1 -0.348,0.044 c 0,0 0.479,0.261 0.523,0.37 0.022,0.065 3.048,7.272 3.157,7.511 l 0.109,0.37 v 0 l 0.61,2.961 h 0.065 a 14.523,14.523 0 0 0 -2.242,0.2 v -0.065 a 0.961,0.961 0 0 0 0.109,-0.022 c 0.065,-0.022 0.109,-0.044 0.109,-0.087 0,-0.043 -0.022,-0.74 -0.022,-0.74 a 0.159,0.159 0 0 0 -0.109,-0.109 c -0.087,-0.022 -0.2,-0.022 -0.327,-0.044 v 0 a 5.352,5.352 0 0 0 -0.675,-0.022 8.063,8.063 0 0 0 -1.088,0.131 8.6,8.6 0 0 0 -0.958,0.2 c 0,0.022 0,0.5 0.022,0.588 H 578.5 l -0.522,0.588 h -0.022 l -2.395,-3.309 a 0.472,0.472 0 0 0 -0.436,-0.218 c -0.327,0 -1.023,0.022 -1.023,0.022 l 1.633,3.832 c -0.414,0.087 -0.7,0.174 -0.7,0.174 v 0.61 0 0.01 c 0,0 0.283,0.065 0.7,0.152 l -1.611,3.81 c 0,0 0.392,0.044 0.784,0.044 0.457,0 0.522,-0.065 0.653,-0.218 0.087,-0.131 1.546,-2.155 2.395,-3.309 H 578 l 0.523,0.566 h 0.152 c -0.022,0.087 -0.022,0.566 -0.022,0.588 a 7.468,7.468 0 0 0 0.958,0.2 8.067,8.067 0 0 0 1.088,0.131 7.383,7.383 0 0 0 1,-0.044 0.159,0.159 0 0 0 0.109,-0.109 c 0,0 0.022,-0.7 0.022,-0.74 0,-0.04 -0.044,-0.065 -0.109,-0.087 a 0.44,0.44 0 0 0 -0.109,-0.022 V 55.79 a 13.719,13.719 0 0 0 2.155,0.218 l -0.588,2.939 v 0 l -0.109,0.37 c -0.109,0.261 -1.2,2.83 -1.5,3.549 v 0 c -0.805,1.938 -1.655,3.919 -1.676,3.962 a 2.954,2.954 0 0 1 -0.523,0.37 c 0.24,0.022 0.152,0.022 0.348,0.044 0.2,-0.087 0.849,-0.131 1.067,-0.348 a 6.476,6.476 0 0 0 0.544,-0.61 l 4.245,-6.727 0.392,-0.588 2.591,-3.113 a 8.289,8.289 0 0 0 0.893,-0.109 h 3.135 c 3.266,0 4.964,-1 4.964,-1.219 a 8.565,8.565 0 0 0 -4.724,-1.132"
     transform="translate(-574.1,-41.9)"
     fill="#000"
     id="path2"
     style="fill:#000000" />
</svg>
